Coordinates
version=1
nRows=27
nColumns=21
inDegrees=yes

Units are S.I. units (second, meters, Newtons, ...)
If the header above contains a line with 'inDegrees', this indicates whether rotational values are in degrees (yes) or radians (no).

endheader
time	sternoclavicular_r2	sternoclavicular_r3	unrotscap_r3	unrotscap_r2	acromioclavicular_r2	acromioclavicular_r3	acromioclavicular_r1	unrothum_r1	unrothum_r3	unrothum_r2	elv_angle	shoulder_elev	shoulder1_r2	shoulder_rot	elbow_flexion	pro_sup	deviation	flexion	wrist_hand_r1	wrist_hand_r3
      0.00000000	     -0.00048191	      0.00020412	     -0.00020412	      0.00048191	     -0.00009758	      0.00078859	      0.00035446	     -0.00035446	     -0.00078859	      0.00009758	     60.14277612	      0.00199137	    -60.14277612	    -14.02953329	    125.80075253	      0.00000000	      0.00000000	     -0.00000000	     -0.00000000	      0.00000000
      0.10101010	     -0.00048216	      0.00020422	     -0.00020422	      0.00048216	     -0.00009763	      0.00078900	      0.00035465	     -0.00035465	     -0.00078900	      0.00009763	     59.93520758	      0.00199241	    -59.93520758	    -14.02925667	    125.79970583	      0.00000000	      0.00000000	     -0.00000000	     -0.00000000	      0.00000000
      0.20202020	     -0.00048242	      0.00020433	     -0.00020433	      0.00048242	     -0.00009768	      0.00078942	      0.00035484	     -0.00035484	     -0.00078942	      0.00009768	     59.72330602	      0.00199348	    -59.72330602	    -14.02918603	    125.79882350	      0.00000000	      0.00000000	     -0.00000000	     -0.00000000	      0.00000000
      0.30303030	     -0.00048268	      0.00020444	     -0.00020444	      0.00048268	     -0.00009773	      0.00078985	      0.00035503	     -0.00035503	     -0.00078985	      0.00009773	     59.50704366	      0.00199455	    -59.50704366	    -14.02860802	    125.79528168	      0.00000000	      0.00000000	     -0.00000000	     -0.00000000	      0.00000000
      0.40404040	     -0.00048293	      0.00020454	     -0.00020454	      0.00048293	     -0.00009778	      0.00079025	      0.00035521	     -0.00035521	     -0.00079025	      0.00009778	     59.28633951	      0.00199556	    -59.28633951	    -14.02688197	    125.78618607	      0.00000000	      0.00000000	     -0.00000000	     -0.00000000	      0.00000000
      0.50505051	     -0.00048314	      0.00020464	     -0.00020464	      0.00048314	     -0.00009783	      0.00079060	      0.00035537	     -0.00035537	     -0.00079060	      0.00009783	     59.06105510	      0.00199645	    -59.06105510	    -14.02339174	    125.76879686	      0.00000000	      0.00000000	     -0.00000000	     -0.00000000	      0.00000000
      0.60606061	     -0.00048332	      0.00020471	     -0.00020471	      0.00048332	     -0.00009786	      0.00079089	      0.00035550	     -0.00035550	     -0.00079089	      0.00009786	     58.83097129	      0.00199718	    -58.83097129	    -14.01755743	    125.74054682	      0.00000000	      0.00000000	     -0.00000000	     -0.00000000	      0.00000000
      0.70707071	     -0.00048344	      0.00020476	     -0.00020476	      0.00048344	     -0.00009789	      0.00079109	      0.00035559	     -0.00035559	     -0.00079109	      0.00009789	     58.59576882	      0.00199769	    -58.59576882	    -14.00883685	    125.69903410	      0.00000000	      0.00000000	     -0.00000000	     -0.00000000	      0.00000000
      0.80808081	     -0.00048350	      0.00020479	     -0.00020479	      0.00048350	     -0.00009790	      0.00079119	      0.00035563	     -0.00035563	     -0.00079119	      0.00009790	     58.35501246	      0.00199795	    -58.35501246	    -13.99672702	    125.64201390	      0.00000000	      0.00000000	     -0.00000000	     -0.00000000	      0.00000000
      0.90909091	     -0.00048350	      0.00020479	     -0.00020479	      0.00048350	     -0.00009790	      0.00079118	      0.00035563	     -0.00035563	     -0.00079118	      0.00009790	     58.10813940	      0.00199791	    -58.10813940	    -13.98076547	    125.56739008	      0.00000000	      0.00000000	     -0.00000000	     -0.00000000	      0.00000000
      1.01010101	     -0.00048341	      0.00020475	     -0.00020475	      0.00048341	     -0.00009788	      0.00079104	      0.00035557	     -0.00035557	     -0.00079104	      0.00009788	     57.85445436	      0.00199758	    -57.85445436	    -13.96053315	    125.47321540	      0.00000000	      0.00000000	     -0.00000000	     -0.00000000	      0.00000000
      1.11111111	     -0.00048326	      0.00020468	     -0.00020468	      0.00048326	     -0.00009785	      0.00079079	      0.00035545	     -0.00035545	     -0.00079079	      0.00009785	     57.59313153	      0.00199693	    -57.59313153	    -13.93565649	    125.35769630	      0.00000000	      0.00000000	     -0.00000000	     -0.00000000	      0.00000000
      1.21212121	     -0.00048302	      0.00020459	     -0.00020459	      0.00048302	     -0.00009780	      0.00079040	      0.00035528	     -0.00035528	     -0.00079040	      0.00009780	     57.32322581	      0.00199595	    -57.32322581	    -13.90581236	    125.21921419	      0.00000000	      0.00000000	     -0.00000000	     -0.00000000	      0.00000000
      1.31313131	     -0.00048372	      0.00020488	     -0.00020488	      0.00048372	     -0.00009794	      0.00079154	      0.00035579	     -0.00035579	     -0.00079154	      0.00009794	     57.02531198	      0.00199882	    -57.02531198	    -13.86682990	    125.04580838	      0.00000000	      0.00000000	     -0.00000000	     -0.00000000	      0.00000000
      1.41414141	     -0.00048343	      0.00020476	     -0.00020476	      0.00048343	     -0.00009788	      0.00079107	      0.00035558	     -0.00035558	     -0.00079107	      0.00009788	     56.70971995	      0.00199764	    -56.70971995	    -13.82569689	    124.85583668	      0.00000000	      0.00000000	     -0.00000000	     -0.00000000	      0.00000000
      1.51515152	     -0.00048311	      0.00020462	     -0.00020462	      0.00048311	     -0.00009782	      0.00079055	      0.00035534	     -0.00035534	     -0.00079055	      0.00009782	     56.36995245	      0.00199632	    -56.36995245	    -13.77900149	    124.63950548	      0.00000000	      0.00000000	     -0.00000000	     -0.00000000	      0.00000000
      1.61616162	     -0.00048276	      0.00020448	     -0.00020448	      0.00048276	     -0.00009775	      0.00078998	      0.00035509	     -0.00035509	     -0.00078998	      0.00009775	     56.00462145	      0.00199489	    -56.00462145	    -13.72663313	    124.39593453	      0.00000000	      0.00000000	     -0.00000000	     -0.00000000	      0.00000000
      1.71717172	     -0.00048241	      0.00020433	     -0.00020433	      0.00048241	     -0.00009768	      0.00078940	      0.00035483	     -0.00035483	     -0.00078940	      0.00009768	     55.61253977	      0.00199343	    -55.61253977	    -13.66849560	    124.12438712	      0.00000000	      0.00000000	     -0.00000000	     -0.00000000	      0.00000000
      1.81818182	     -0.00048207	      0.00020418	     -0.00020418	      0.00048207	     -0.00009761	      0.00078884	      0.00035458	     -0.00035458	     -0.00078884	      0.00009761	     55.19280627	      0.00199200	    -55.19280627	    -13.60452740	    123.82427283	      0.00000000	      0.00000000	     -0.00000000	     -0.00000000	      0.00000000
      1.91919192	     -0.00048175	      0.00020404	     -0.00020404	      0.00048175	     -0.00009754	      0.00078831	      0.00035434	     -0.00035434	     -0.00078831	      0.00009754	     54.74442906	      0.00199068	    -54.74442906	    -13.53470197	    123.49515284	      0.00000000	      0.00000000	     -0.00000000	     -0.00000000	      0.00000000
      2.02020202	     -0.00048147	      0.00020393	     -0.00020393	      0.00048147	     -0.00009749	      0.00078787	      0.00035414	     -0.00035414	     -0.00078787	      0.00009749	     54.26659388	      0.00198955	    -54.26659388	    -13.45902290	    123.13673030	      0.00000000	      0.00000000	     -0.00000000	     -0.00000000	      0.00000000
      2.12121212	     -0.00048127	      0.00020384	     -0.00020384	      0.00048127	     -0.00009745	      0.00078754	      0.00035399	     -0.00035399	     -0.00078754	      0.00009745	     53.75867394	      0.00198873	    -53.75867394	    -13.37752766	    122.74885285	      0.00000000	      0.00000000	     -0.00000000	     -0.00000000	      0.00000000
      2.22222222	     -0.00048117	      0.00020380	     -0.00020380	      0.00048117	     -0.00009743	      0.00078737	      0.00035392	     -0.00035392	     -0.00078737	      0.00009743	     53.22024042	      0.00198830	    -53.22024042	    -13.29028161	    122.33150846	      0.00000000	      0.00000000	     -0.00000000	     -0.00000000	      0.00000000
      2.32323232	     -0.00048119	      0.00020381	     -0.00020381	      0.00048119	     -0.00009743	      0.00078741	      0.00035393	     -0.00035393	     -0.00078741	      0.00009743	     52.65106227	      0.00198839	    -52.65106227	    -13.19737362	    121.88482210	      0.00000000	      0.00000000	     -0.00000000	     -0.00000000	      0.00000000
      2.42424242	     -0.00048137	      0.00020388	     -0.00020388	      0.00048137	     -0.00009747	      0.00078769	      0.00035406	     -0.00035406	     -0.00078769	      0.00009747	     52.05109233	      0.00198911	    -52.05109233	    -13.09891137	    121.40905278	      0.00000000	      0.00000000	     -0.00000000	     -0.00000000	      0.00000000
      2.52525253	     -0.00048173	      0.00020404	     -0.00020404	      0.00048173	     -0.00009754	      0.00078829	      0.00035433	     -0.00035433	     -0.00078829	      0.00009754	     51.42043997	      0.00199061	    -51.42043997	    -12.99501800	    120.90459272	      0.00000000	      0.00000000	     -0.00000000	     -0.00000000	      0.00000000
      2.62626263	     -0.00048231	      0.00020428	     -0.00020428	      0.00048231	     -0.00009766	      0.00078923	      0.00035476	     -0.00035476	     -0.00078923	      0.00009766	     50.75933512	      0.00199300	    -50.75933512	    -12.88583242	    120.37196981	      0.00000000	      0.00000000	     -0.00000000	     -0.00000000	      0.00000000
